<svg xmlns="http://www.w3.org/2000/svg" viewBox="0 0 64 64">
  <defs>
    <linearGradient id="panelGrad" x1="0%" y1="0%" x2="100%" y2="100%">
      <stop offset="0%" style="stop-color:#3b82f6;stop-opacity:1" />
      <stop offset="100%" style="stop-color:#1d4ed8;stop-opacity:1" />
    </linearGradient>
  </defs>
  <!-- Main body -->
  <rect x="24" y="20" width="16" height="24" rx="2" fill="#374151"/>
  <rect x="26" y="22" width="12" height="8" rx="1" fill="#60a5fa"/>
  <!-- Solar panels -->
  <rect x="2" y="26" width="20" height="12" rx="1" fill="url(#panelGrad)"/>
  <rect x="42" y="26" width="20" height="12" rx="1" fill="url(#panelGrad)"/>
  <!-- Panel lines -->
  <line x1="7" y1="26" x2="7" y2="38" stroke="#1e40af" stroke-width="0.5"/>
  <line x1="12" y1="26" x2="12" y2="38" stroke="#1e40af" stroke-width="0.5"/>
  <line x1="17" y1="26" x2="17" y2="38" stroke="#1e40af" stroke-width="0.5"/>
  <line x1="47" y1="26" x2="47" y2="38" stroke="#1e40af" stroke-width="0.5"/>
  <line x1="52" y1="26" x2="52" y2="38" stroke="#1e40af" stroke-width="0.5"/>
  <line x1="57" y1="26" x2="57" y2="38" stroke="#1e40af" stroke-width="0.5"/>
  <!-- Antenna -->
  <circle cx="32" cy="16" r="3" fill="none" stroke="#9ca3af" stroke-width="1.5"/>
  <line x1="32" y1="19" x2="32" y2="20" stroke="#9ca3af" stroke-width="1.5"/>
  <!-- Thruster -->
  <path d="M 28 44 L 28 48 L 36 48 L 36 44" fill="#ef4444"/>
</svg>
